<svg width="78" height="78" viewBox="0 0 78 78" fill="none" xmlns="http://www.w3.org/2000/svg">
<circle cx="39.154" cy="39.3843" r="38.4615" fill="white"/>
<path d="M51.625 22H25.375C22.9615 22 21 23.9615 21 26.375V52.625C21 55.0371 22.9615 57 25.375 57H51.625C54.0371 57 56 55.0371 56 52.625V26.375C56 23.9615 54.0371 22 51.625 22Z" fill="black"/>
<path d="M45.0625 39.5V35.125C45.0625 33.9175 46.0425 34.0312 47.25 34.0312H49.4375V28.5625H45.0625C41.4371 28.5625 38.5 31.4996 38.5 35.125V39.5H34.125V44.9688H38.5V57H45.0625V44.9688H48.3437L50.5312 39.5H45.0625Z" fill="white"/>
</svg>
