<svg width="45" height="68" viewBox="0 0 45 68" fill="none" xmlns="http://www.w3.org/2000/svg">
<g clip-path="url(#clip0_17_90)">
<path d="M11.2523 67.5C17.461 67.5 22.5 62.46 22.5 56.25V45H11.2523C5.04351 45 0.0045166 50.04 0.0045166 56.25C0.0045166 62.46 5.04351 67.5 11.2523 67.5Z" fill="#0ACF83"/>
<path d="M0.0045166 33.75C0.0045166 27.54 5.04351 22.5 11.2523 22.5H22.5V45H11.2523C5.04351 45 0.0045166 39.96 0.0045166 33.75Z" fill="#A259FF"/>
<path d="M0.0098877 11.25C0.0098877 5.04 5.04888 0 11.2576 0H22.5054V22.5H11.2576C5.04888 22.5 0.0098877 17.46 0.0098877 11.25Z" fill="#F24E1E"/>
<path d="M22.5 0H33.7478C39.9565 0 44.9955 5.04 44.9955 11.25C44.9955 17.46 39.9565 22.5 33.7478 22.5H22.5V0Z" fill="#FF7262"/>
<path d="M44.9955 33.75C44.9955 39.96 39.9565 45 33.7478 45C27.539 45 22.5 39.96 22.5 33.75C22.5 27.54 27.539 22.5 33.7478 22.5C39.9565 22.5 44.9955 27.54 44.9955 33.75Z" fill="#1ABCFE"/>
</g>
<defs>
<clipPath id="clip0_17_90">
<path d="M0 0H45V47.5C45 58.5457 36.0457 67.5 25 67.5H20C8.9543 67.5 0 58.5457 0 47.5V0Z" fill="white"/>
</clipPath>
</defs>
</svg>
