<svg width="77" height="77" viewBox="0 0 77 77" fill="none" xmlns="http://www.w3.org/2000/svg">
<circle cx="38.4615" cy="38.4615" r="38.4615" fill="white"/>
<g clip-path="url(#clip0_17_84)">
<path d="M23.1862 23.3815C20.4358 26.2384 20.9987 29.2732 20.9987 38.4928C20.9987 46.149 19.6629 53.8242 26.6541 55.6311C28.8373 56.1926 48.1806 56.1926 50.3608 55.6282C53.2716 54.8772 55.6399 52.5161 55.9637 48.3992C56.0089 47.8247 56.0089 29.1711 55.9622 28.5849C55.6181 24.1996 52.9187 21.6723 49.3618 21.1605C48.5466 21.0423 48.3833 21.0073 44.2008 21.0001C29.3652 21.0073 26.1131 20.3467 23.1862 23.3815Z" fill="black"/>
<path d="M38.497 25.5777C33.2018 25.5777 28.1734 25.1066 26.2528 30.0358C25.4595 32.0716 25.5747 34.7156 25.5747 38.5014C25.5747 41.8235 25.4682 44.9458 26.2528 46.9656C28.1691 51.8977 33.2382 51.4252 38.4941 51.4252C43.5647 51.4252 48.7928 51.9531 50.7368 46.9656C51.5315 44.9093 51.4149 42.3047 51.4149 38.5014C51.4149 33.4527 51.6934 30.1933 49.2449 27.7462C46.7657 25.267 43.413 25.5777 38.4911 25.5777H38.497ZM37.3391 27.9066C48.3845 27.8891 49.7903 26.6612 49.0145 43.7193C48.7388 49.7524 44.1451 49.0904 38.4984 49.0904C28.2026 49.0904 27.9066 48.7958 27.9066 38.4956C27.9066 28.0758 28.7232 27.9124 37.3391 27.9037V27.9066ZM45.3949 30.0518C44.5388 30.0518 43.8447 30.746 43.8447 31.602C43.8447 32.4581 44.5388 33.1522 45.3949 33.1522C46.2509 33.1522 46.9451 32.4581 46.9451 31.602C46.9451 30.746 46.2509 30.0518 45.3949 30.0518ZM38.497 31.8645C34.8322 31.8645 31.8616 34.8366 31.8616 38.5014C31.8616 42.1662 34.8322 45.1368 38.497 45.1368C42.1618 45.1368 45.1309 42.1662 45.1309 38.5014C45.1309 34.8366 42.1618 31.8645 38.497 31.8645ZM38.497 34.1935C44.1918 34.1935 44.199 42.8093 38.497 42.8093C32.8036 42.8093 32.7949 34.1935 38.497 34.1935Z" fill="white"/>
</g>
<defs>
<clipPath id="clip0_17_84">
<rect width="35" height="35" fill="white" transform="translate(21 21)"/>
</clipPath>
</defs>
</svg>
