<svg width="77" height="78" viewBox="0 0 77 78" fill="none" xmlns="http://www.w3.org/2000/svg">
<circle cx="38.4615" cy="39.3074" r="38.4615" fill="white"/>
<g clip-path="url(#clip0_17_86)">
<path d="M56 27.6478C54.6984 28.2188 53.3115 28.5972 51.8656 28.7809C53.3531 27.8928 54.4884 26.4972 55.0222 24.815C53.6353 25.6419 52.104 26.2259 50.4722 26.5519C49.1553 25.1497 47.2784 24.2812 45.2309 24.2812C41.2584 24.2812 38.0603 27.5056 38.0603 31.4584C38.0603 32.0272 38.1084 32.5741 38.2266 33.0947C32.2612 32.8038 26.9828 29.9447 23.4369 25.5894C22.8178 26.6634 22.4547 27.8928 22.4547 29.2162C22.4547 31.7013 23.7344 33.9041 25.6419 35.1794C24.4891 35.1575 23.3581 34.8228 22.4 34.2956C22.4 34.3175 22.4 34.3459 22.4 34.3744C22.4 37.8612 24.8872 40.7575 28.1487 41.4247C27.5647 41.5844 26.9281 41.6609 26.2675 41.6609C25.8081 41.6609 25.3444 41.6347 24.9091 41.5384C25.8387 44.38 28.4769 46.4691 31.6137 46.5369C29.1725 48.4466 26.0728 49.5972 22.7172 49.5972C22.1287 49.5972 21.5644 49.5709 21 49.4987C24.1784 51.5484 27.9453 52.7188 32.0075 52.7188C45.2112 52.7188 52.43 41.7812 52.43 32.3006C52.43 31.9834 52.419 31.6772 52.4037 31.3731C53.8278 30.3625 55.0244 29.1003 56 27.6478Z" fill="black"/>
</g>
<defs>
<clipPath id="clip0_17_86">
<rect width="35" height="35" fill="white" transform="translate(21 21)"/>
</clipPath>
</defs>
</svg>
