<svg width="77" height="78" viewBox="0 0 77 78" fill="none" xmlns="http://www.w3.org/2000/svg">
<circle cx="38.4615" cy="39.2303" r="38.4615" fill="white"/>
<path d="M54.5125 28.7875C53.5631 27.0987 52.5328 26.7881 50.435 26.67C48.3394 26.5278 43.0697 26.4688 38.5044 26.4688C33.9303 26.4688 28.6584 26.5278 26.565 26.6678C24.4716 26.7881 23.4391 27.0966 22.4809 28.7875C21.5031 30.4741 21 33.3791 21 38.4934C21 38.4978 21 38.5 21 38.5C21 38.5044 21 38.5066 21 38.5066V38.5109C21 43.6034 21.5031 46.5303 22.4809 48.1994C23.4391 49.8881 24.4694 50.1944 26.5628 50.3366C28.6584 50.4591 33.9303 50.5312 38.5044 50.5312C43.0697 50.5312 48.3394 50.4591 50.4372 50.3387C52.535 50.1966 53.5653 49.8903 54.5147 48.2016C55.5012 46.5325 56 43.6056 56 38.5131C56 38.5131 56 38.5066 56 38.5022C56 38.5022 56 38.4978 56 38.4956C56 33.3791 55.5012 30.4741 54.5125 28.7875Z" fill="black"/>
<path d="M34.125 45.0625V31.9375L45.0625 38.5L34.125 45.0625Z" fill="white"/>
</svg>
